<svg xmlns="http://www.w3.org/2000/svg" xmlns:xlink="http://www.w3.org/1999/xlink" version="1.1" id="Layer_1" x="0px" y="0px" width="500px" height="250px" viewBox="0 0 129.4 78.6" style="enable-background:new 0 0 129.4 78.6;" xml:space="preserve">
<style type="text/css">
	.st0{enable-background:new    ;}
	.st1{fill:#ffffff;}
</style>
<g id="JUSTIN-Website-2023">
	<g id="Organisms-_x2F_-Global-_x2F_-Footer-_x2F_-Awards" transform="translate(-425.812500, -289.360000)">
		<g id="Group-2" transform="translate(387.000000, 288.000000)">
			<g id="one_michelin_star_2023" transform="translate(38.812500, 1.357080)">
				<g id="mich-1" transform="translate(0.000000, 0.000000)">
					<g class="st0">
						<path class="st1" d="M34.7,31.4h2.2v10.7h-1.6v-8.9h0l-4.2,8.9h-1.4l-4.2-8.7h0v8.7h-1.6V31.4h2.2l4.2,8.9L34.7,31.4z" fill="#000000"/>
						<path class="st1" d="M39.6,31.4h1.6v10.7h-1.6V31.4z" fill="#000000"/>
						<path class="st1" d="M52.7,35.3c-0.2-1.5-1.4-2.7-3.7-2.7c-2.5,0-4.1,1.5-4.1,4.4c0,2,1.1,4.1,4.1,4.1c1.9,0,3.3-0.9,3.7-3        h1.6c-0.3,2.4-2.3,4.4-5.4,4.4c-2.7,0-5.6-1.5-5.6-5.7c0-3.1,2-5.6,5.6-5.6c2.1,0,5.1,0.9,5.4,4.1H52.7z" fill="#000000"/>
						<path class="st1" d="M65.3,37.1h-7.3v5h-1.6V31.4h1.6v4.3h7.3v-4.3h1.6v10.7h-1.6V37.1z" fill="#000000"/>
						<path class="st1" d="M69.5,31.4h8.6v1.4h-7v3.1h6.8v1.4h-6.8v3.5h7.2v1.4h-8.8V31.4z" fill="#000000"/>
						<path class="st1" d="M80.5,31.4h1.6v9.3h6.5v1.4h-8.1V31.4z" fill="#000000"/>
						<path class="st1" d="M90.3,31.4h1.6v10.7h-1.6V31.4z" fill="#000000"/>
						<path class="st1" d="M96.3,33.6L96.3,33.6l0,8.5h-1.6V31.4h1.8l6.9,8.5h0v-8.5h1.6v10.7h-1.8L96.3,33.6z" fill="#000000"/>
					</g>
					<g class="st0">
						<path class="st1" d="M44.9,54.9c0,1.9,1.8,2.4,3.4,2.4c1.7,0,2.9-0.6,2.9-1.8c0-1-0.8-1.4-2-1.6l-2.4-0.4        c-1.3-0.2-3.2-0.7-3.2-2.8c0-2,1.5-3.3,4.3-3.3c2.1,0,4.4,0.8,4.6,3.4h-1.6c-0.1-0.8-0.6-2-3.2-2c-1.2,0-2.5,0.5-2.5,1.8        c0,0.7,0.4,1.2,1.8,1.4l2.6,0.5c0.8,0.1,3.2,0.6,3.2,2.7c0,2.7-2.4,3.5-4.6,3.5c-2.4,0-4.9-0.8-4.9-3.8H44.9z" fill="#000000"/>
						<path class="st1" d="M57.5,49.1h-4v-1.4h9.7v1.4h-4v9.3h-1.6V49.1z" fill="#000000"/>
						<path class="st1" d="M71.1,55.3h-5.2l-1.4,3.1h-1.7l4.8-10.7h1.8l4.8,10.7h-1.8L71.1,55.3z M68.5,49.2l-2,4.7h4.1L68.5,49.2z" fill="#000000"/>
						<path class="st1" d="M75.8,47.7h6.6c2.1,0,2.9,1.5,2.9,2.9c0,1.3-0.6,2.3-1.8,2.6v0c0.9,0.1,1.5,1,1.6,2.3        c0.1,2,0.1,2.5,0.5,2.9h-1.7c-0.3-0.3-0.3-0.8-0.3-2c-0.1-1.9-0.8-2.5-2.1-2.5h-4.2v4.5h-1.6V47.7z M81.8,52.5        c1.6,0,1.9-0.9,1.9-1.7c0-1-0.6-1.7-1.9-1.7h-4.5v3.4H81.8z" fill="#000000"/>
					</g>
					<g class="st0">
						<path class="st1" d="M52.1,71.1c0-1.5,0.8-2.5,2.7-2.5c1.8,0,2.6,1,2.6,2.2c0,2.4-3.4,2.3-4.2,3.9h4.2v0.9H52        c0.2-3.2,4.4-2.8,4.4-4.9c0-1-0.7-1.4-1.5-1.4c-1.2,0-1.8,0.7-1.8,1.7H52.1z" fill="#000000"/>
						<path class="st1" d="M61.7,68.5c2.2,0,2.9,1.6,2.9,3.6c0,2-0.7,3.6-2.9,3.6c-2.2,0-2.9-1.6-2.9-3.6        C58.8,70.2,59.5,68.5,61.7,68.5z M61.7,69.4c-1.7,0-1.8,2-1.8,2.8c0,0.8,0.1,2.8,1.8,2.8c1.7,0,1.8-2,1.8-2.8        C63.5,71.3,63.4,69.4,61.7,69.4z" fill="#000000"/>
						<path class="st1" d="M65.5,71.1c0-1.5,0.8-2.5,2.7-2.5c1.8,0,2.6,1,2.6,2.2c0,2.4-3.4,2.3-4.2,3.9h4.2v0.9h-5.5        c0.2-3.2,4.4-2.8,4.4-4.9c0-1-0.7-1.4-1.5-1.4c-1.2,0-1.8,0.7-1.8,1.7H65.5z" fill="#000000"/>
						<path class="st1" d="M74.2,71.5c0.1,0,0.3,0,0.7,0c0.9,0,1.4-0.4,1.4-1c0-0.9-0.8-1.1-1.5-1.1c-1.1,0-1.5,0.5-1.6,1.5h-1        c0.1-1.6,1.1-2.3,2.6-2.3c1.8,0,2.5,0.9,2.5,1.9c0,0.6-0.3,1.2-1,1.4v0c0.8,0.1,1.3,0.8,1.3,1.7c0,1.2-0.8,2.2-2.7,2.2        c-0.7,0-2.9,0-2.9-2.4h1c0.1,1.2,0.8,1.5,1.9,1.5c1.1,0,1.7-0.5,1.7-1.3c0-0.8-0.7-1.2-1.7-1.2c-0.4,0-0.5,0-0.6,0V71.5z" fill="#000000"/>
					</g>
					<g id="Micheline-Star" transform="translate(52.467500, 0.000000)">
						<path id="Shape" class="st1" d="M17,5.9V4.6c0-1.3-0.4-2.4-1.3-3.3C14.8,0.4,13.8,0,12.5,0C11,0,9.9,0.4,9.1,1.3        C8.3,2.2,7.9,3.4,7.9,4.9v0.4c0,0.1,0,0.1,0,0.2l0,0.5C6.7,5,5.4,4.5,4.4,4.5C3.5,4.5,2.7,4.8,2,5.3C1.3,5.9,0.7,6.6,0.4,7.4        C0.1,8,0,8.6,0,9.2c0,1.8,1.1,3.2,3.2,4.2l0.4,0.2C1.2,14.7,0,16.1,0,18c0,1.2,0.4,2.3,1.3,3.3s1.9,1.4,3.1,1.4        c1.1,0,2.2-0.4,3.2-1.2L8,21.2c0,0.4-0.1,0.8-0.1,1.3c0,1.4,0.4,2.5,1.3,3.3c0.9,0.9,1.9,1.3,3.2,1.3c1.4,0,2.5-0.4,3.3-1.3        s1.2-2.1,1.2-3.5v-1.1c1.3,1,2.5,1.4,3.6,1.4c1.2,0,2.2-0.5,3.1-1.4c0.9-0.9,1.3-2,1.3-3.3c0-1.8-1.1-3.2-3.2-4.2l-0.4-0.2        c2.4-1.1,3.6-2.5,3.6-4.4C24.9,8,24.5,7,23.6,6s-1.9-1.5-3.1-1.5c-1.2,0-2.3,0.4-3.2,1.1L17,5.9z M14.7,10.5        c2.1-3.1,4.1-4.6,5.8-4.6c0.7,0,1.4,0.3,2,1s0.9,1.4,0.9,2.3c0,2.2-2.4,3.6-7.3,4V14c2.4,0.2,4.2,0.6,5.5,1.3        c1.2,0.7,1.8,1.6,1.8,2.7c0,0.8-0.3,1.6-0.9,2.2c-0.6,0.7-1.3,1-2.1,1c-1.8,0-3.8-1.5-5.8-4.6L14,17c1,2.1,1.6,3.9,1.6,5.3        c0,2.2-1,3.4-3.1,3.4c-1,0-1.7-0.3-2.3-0.9c-0.5-0.6-0.8-1.4-0.8-2.4c0-1.4,0.5-3.2,1.6-5.4l-0.7-0.4c-2.1,3.1-4,4.6-5.8,4.6        c-0.7,0-1.4-0.3-2-1S1.4,18.9,1.4,18c0-2.2,2.4-3.6,7.3-4v-0.8c-4.8-0.4-7.3-1.7-7.3-4c0-0.8,0.3-1.5,0.9-2.2s1.3-1,2.1-1        c1.8,0,3.7,1.5,5.8,4.6l0.7-0.4C9.9,8,9.4,6.2,9.4,4.7c0-1,0.3-1.8,0.8-2.4c0.5-0.6,1.3-0.9,2.3-0.9c2,0,3.1,1.1,3.1,3.3        c0,1.5-0.5,3.3-1.6,5.4L14.7,10.5z" fill="#000000"/>
					</g>
				</g>
			</g>
		</g>
	</g>
</g>
</svg>